<?xml version="1.0" standalone="no"?>
<!DOCTYPE svg PUBLIC "-//W3C//DTD SVG 20010904//EN"
 "http://www.w3.org/TR/2001/REC-SVG-20010904/DTD/svg10.dtd">
<svg version="1.0" xmlns="http://www.w3.org/2000/svg"
 width="625.000000pt" height="625.000000pt" viewBox="0 0 625.000000 625.000000"
 preserveAspectRatio="xMidYMid meet">
<metadata>
Created by potrace 1.14, written by Peter Selinger 2001-2017
</metadata>
<g transform="translate(0.000000,625.000000) scale(0.100000,-0.100000)"
fill="#000000" stroke="none">
<path d="M4075 4578 c-15 -7 -182 -388 -616 -1406 -527 -1235 -594 -1397 -577
-1400 11 -2 22 -1 25 2 3 3 89 200 192 438 l187 433 586 3 585 2 155 -437 155
-438 171 -3 171 -2 -23 62 c-13 35 -238 666 -501 1403 -263 737 -481 1343
-484 1346 -3 4 -15 3 -26 -3z m110 -1153 c136 -385 250 -708 253 -717 4 -17
-27 -18 -562 -18 -311 0 -566 3 -566 6 0 6 608 1411 617 1427 3 5 6 7 8 5 2
-2 114 -318 250 -703z"/>
<path d="M1290 3170 l0 -1400 165 0 165 0 0 720 0 720 585 0 c578 0 585 0 585
20 0 20 -7 20 -585 20 l-585 0 0 640 0 640 630 0 c623 0 630 0 630 20 0 20 -7
20 -795 20 l-795 0 0 -1400z"/>
</g>
</svg>
